<?xml version="1.0" encoding="UTF-8"?><svg id="Layer_2" xmlns="http://www.w3.org/2000/svg" viewBox="0 0 532.81 167.42"><defs><style>.cls-1{fill:#010101;}.cls-1,.cls-2{stroke-width:0px;}.cls-2{fill:#b52f32;}</style></defs><g id="Layer_1-2"><path class="cls-2" d="M175.12,0c1.42,2.9,2.81,5.82,4.27,8.7.16.31.7.53,1.1.59,2.99.47,5.99.89,9.2,1.36-.32.34-.53.59-.76.82-1.97,1.92-3.93,3.85-5.93,5.74-.65.62-.68.98.12,1.52,27.17,17.93,51.8,38.91,74.69,61.99,1.16,1.17,2.37,2.3,3.65,3.53,3.21-8.31,6.42-16.62,9.65-24.99h12.81q2.35,0,3.2,2.22c13.31,34.54,26.63,69.07,39.94,103.61.14.35.25.72.41,1.16-.21.03-.34.06-.46.06-4.59,0-9.18.02-13.76-.03-.37,0-.9-.36-1.09-.7-12.31-22.03-27.89-41.68-44.26-60.75-.09-.1-.2-.19-.4-.38-.72,1.94-1.41,3.8-2.1,5.67-6.73,18.4-13.47,36.81-20.19,55.22-.27.74-.62,1-1.42.99-4.59-.04-9.17-.02-13.92-.02.15-.44.25-.79.38-1.13,9.05-23.47,18.1-46.95,27.18-70.41.37-.96.24-1.54-.45-2.29-23.15-25.39-47.68-49.38-73.25-72.31-.28-.25-.58-.48-1.06-.88.5,2.95.95,5.67,1.44,8.6-1.67-.87-3.12-1.64-4.59-2.39-1.5-.77-3.01-2.1-4.52-2.12-1.47-.01-2.94,1.34-4.41,2.1-1.49.77-2.98,1.55-4.62,2.41.49-2.86.85-5.55,1.43-8.19.3-1.35.05-2.23-.97-3.2-1.98-1.89-3.77-3.98-5.6-5.93,2.25-.33,4.76-.81,7.3-1.03,1.73-.15,2.77-.75,3.43-2.42.85-2.15,2.02-4.18,3.04-6.27.13-.27.2-.58.3-.87.07,0,.14,0,.21,0ZM278.55,74.34c-.22.53-.37.88-.5,1.24-2.17,5.91-4.31,11.84-6.52,17.73-.36.95-.24,1.54.44,2.31,6.54,7.39,13.05,14.82,19.53,22.27,1.8,2.07,3.5,4.22,5.24,6.34.06-.03.13-.07.19-.1-6.11-16.54-12.22-33.07-18.39-49.79Z"/><path class="cls-2" d="M0,165.9c.16-.29.35-.58.47-.89,13.46-34.89,26.93-69.79,40.36-104.69.32-.82.68-1.11,1.57-1.09,4.34.05,8.68.04,13.02,0,.75,0,1.09.21,1.36.92,3.78,9.89,7.6,19.77,11.41,29.65.14.36.29.71.49,1.21,9.67-10.6,19.29-21.13,28.99-31.76,5.33,5.65,10.61,11.25,15.94,16.91-.24.21-.4.38-.59.53-12.38,9.82-24.75,19.64-37.16,29.43-.85.67-.96,1.16-.57,2.16,7.36,18.99,14.68,38.01,22,57.02.11.29.22.58.38,1.02-.55,0-.99,0-1.43,0-4.16,0-8.33-.03-12.49.03-.88.01-1.18-.31-1.46-1.07-5.95-16.18-11.94-32.35-17.91-48.52-.12-.33-.25-.65-.42-1.07-.27.18-.5.31-.71.47-13.82,10.95-27.64,21.9-41.44,32.88-.44.35-.8.89-1,1.42-1.95,5.24-3.86,10.5-5.81,15.86H0c0-.14,0-.28,0-.42ZM25.32,138.11c.12.09.25.18.37.27.12-.22.21-.46.37-.64,10.74-11.77,21.48-23.54,32.23-35.3.45-.49.5-.87.28-1.48-3.14-8.43-6.26-16.88-9.38-25.32-.13-.35-.28-.69-.52-1.3-7.85,21.43-15.59,42.6-23.34,63.76ZM25.26,138.47l.06.05v-.08s-.06.03-.06.03Z"/><path class="cls-1" d="M130.21,166.31V59.26c.32,0,.59,0,.87,0,11.43,0,22.87-.07,34.3.03,9.83.08,19.38,1.74,28.18,6.35,13.18,6.9,21.42,17.73,24.7,32.18,2.71,11.93,2.56,23.9-1.31,35.58-4.95,14.93-15.4,24.48-30.13,29.53-7.07,2.42-14.41,3.33-21.85,3.37-11.36.06-22.73.02-34.09.02-.2,0-.41,0-.68,0ZM144.26,155.5c.27,0,.48,0,.68,0,6.42,0,12.85.14,19.27-.05,4.04-.13,8.13-.43,12.07-1.24,13.21-2.72,22.28-10.44,26.6-23.28,3.49-10.38,3.54-20.99,1.07-31.59-1.97-8.48-6.25-15.58-13.36-20.78-6.53-4.78-14.04-6.85-21.98-7.17-8-.32-16.02-.17-24.03-.22-.1,0-.19.05-.33.09v84.25Z"/><path class="cls-1" d="M440.79,136.65c-.18.44-.3.76-.44,1.07-6.23,14.09-16.98,23.09-31.67,27.18-14.59,4.06-29.07,3.45-42.65-3.7-15.08-7.94-24.71-20.34-27.75-37.26-2.38-13.27-1.28-26.31,5.5-38.24,8.38-14.75,21.03-23.86,37.88-26.65,13.23-2.19,25.99-.54,37.93,5.89,9.74,5.25,16.62,13.11,20.96,23.23.06.15.1.31.18.57-.29.02-.49.04-.69.04-5.15,0-10.3,0-15.46.01-.56,0-.87-.15-1.16-.66-5.64-10.19-14.35-15.78-25.88-17.07-8.48-.95-16.73-.14-24.4,3.79-11.34,5.81-18.18,15.13-20.55,27.6-1.78,9.4-1.53,18.8,2.08,27.77,5.43,13.51,15.44,21.65,29.86,24.05,8.54,1.42,16.86.58,24.73-3.31,6.09-3.02,10.75-7.54,14.03-13.47.36-.65.75-.85,1.47-.85,4.98.03,9.95.02,14.93.02h1.08Z"/><path class="cls-1" d="M530.71,85.21h-15.5c-.18-.85-.3-1.72-.55-2.55-1.67-5.57-5.38-9.32-10.76-11.23-6.36-2.25-12.86-2.18-19.14.34-8,3.21-10.97,9.6-10.32,17.74.58,7.21,5.09,11.48,11.51,13.68,5.34,1.83,10.89,3.08,16.37,4.5,6.2,1.61,12.43,3.13,18.13,6.17,6.8,3.63,10.6,9.39,11.87,16.89,3.19,18.87-10.57,33.25-26,35.8-10.35,1.71-20.47,1.04-30.09-3.43-5.87-2.72-10.64-6.74-13.44-12.75-1.57-3.38-2.19-6.95-2.23-10.72h14.95c.19,1.02.32,2.07.59,3.08,1.52,5.68,4.98,9.71,10.6,11.53,6.98,2.27,14.06,2.3,20.91-.47,5.45-2.2,9.65-6.03,10.88-11.95,1.99-9.61-1.74-16.61-10.94-19.88-4.89-1.74-10.02-2.8-15.06-4.08-6.35-1.61-12.69-3.19-18.59-6.16-8.2-4.14-12.31-10.94-13.16-19.9-.56-5.94.09-11.7,2.87-17.05,3.65-7.05,9.49-11.72,16.9-14.17,10.98-3.63,22.06-3.5,32.8.85,10.07,4.08,15.7,11.88,17.29,22.61.05.35.05.7.08,1.16Z"/></g></svg>